<?xml version="1.0" standalone="no"?>
<!DOCTYPE svg PUBLIC "-//W3C//DTD SVG 20010904//EN"
 "http://www.w3.org/TR/2001/REC-SVG-20010904/DTD/svg10.dtd">
<svg version="1.0" xmlns="http://www.w3.org/2000/svg"
 width="512.000000pt" height="512.000000pt" viewBox="0 0 512.000000 512.000000"
 preserveAspectRatio="xMidYMid meet">
<metadata>
Created by potrace 1.11, written by Peter Selinger 2001-2013
</metadata>
<g transform="translate(0.000000,512.000000) scale(0.100000,-0.100000)"
fill="#000000" stroke="none">
<path d="M870 5087 c-69 -47 -75 -64 -74 -213 l1 -134 -344 0 c-385 0 -394 -1
-434 -67 -21 -34 -21 -42 -16 -256 4 -122 8 -233 11 -247 2 -14 7 -47 10 -75
6 -49 10 -72 22 -137 3 -18 7 -44 9 -58 2 -14 9 -47 15 -75 6 -27 13 -57 15
-65 27 -120 103 -363 150 -475 256 -618 650 -1036 1119 -1190 95 -31 133 -40
216 -51 100 -12 105 -14 165 -73 91 -88 104 -99 186 -157 l77 -54 -2 -333 -1
-332 -151 -2 c-83 0 -178 -6 -210 -13 -196 -39 -362 -196 -420 -395 -12 -45
-17 -102 -19 -224 l-1 -164 -46 -14 c-116 -33 -150 -175 -61 -254 l34 -29
1425 0 c1604 0 1464 -7 1505 77 23 47 20 96 -8 143 -18 32 -80 70 -112 70 -24
0 -22 -10 -23 171 0 221 -46 349 -167 470 -124 124 -231 161 -471 163 l-165 2
-1 331 -1 332 69 46 c37 26 110 87 162 136 82 78 100 90 138 95 23 3 54 7 68
10 14 2 41 7 60 10 190 32 464 168 635 316 153 132 324 336 433 518 139 232
281 577 323 778 5 24 11 47 14 52 6 9 43 184 50 239 3 20 7 45 9 56 2 11 7 45
11 75 3 30 8 69 10 85 11 78 19 212 19 335 1 126 -1 137 -22 164 -49 63 -35
61 -424 64 l-357 3 6 119 c4 109 3 124 -17 165 -15 32 -34 52 -61 65 -38 20
-66 20 -1682 20 l-1644 0 -33 -23z m-53 -659 c0 -31 15 -194 18 -198 2 -3 6
-34 10 -70 7 -71 22 -181 30 -220 3 -14 8 -41 11 -60 17 -104 31 -173 60 -295
9 -38 18 -79 20 -90 5 -25 66 -239 94 -327 70 -224 222 -571 318 -728 12 -19
20 -36 18 -37 -6 -6 -98 37 -161 74 -375 225 -685 691 -834 1258 -32 118 -66
286 -77 375 -4 30 -8 65 -9 78 -2 13 -6 55 -10 95 -4 40 -8 91 -10 115 l-4 42
263 0 c203 0 263 -3 263 -12z m3988 -25 c-2 -21 -6 -72 -9 -113 -9 -108 -24
-220 -47 -335 -10 -55 -21 -109 -23 -120 -7 -39 -28 -111 -63 -225 -82 -266
-207 -518 -361 -725 -76 -102 -225 -258 -297 -311 -22 -16 -42 -31 -45 -34
-25 -26 -233 -140 -254 -140 -4 0 5 19 19 43 57 92 235 467 235 494 0 4 15 46
33 93 98 250 213 727 257 1065 6 50 13 101 16 115 4 27 17 184 18 213 0 16 20
17 262 17 l262 0 -3 -37z"/>
</g>
</svg>
