<?xml version="1.0" standalone="no"?>
<!DOCTYPE svg PUBLIC "-//W3C//DTD SVG 20010904//EN"
 "http://www.w3.org/TR/2001/REC-SVG-20010904/DTD/svg10.dtd">
<svg version="1.0" xmlns="http://www.w3.org/2000/svg"
 width="473.000000pt" height="473.000000pt" viewBox="0 0 473.000000 473.000000"
 preserveAspectRatio="xMidYMid meet">
<metadata>
Created by potrace 1.11, written by Peter Selinger 2001-2013
</metadata>
<g transform="translate(0.000000,473.000000) scale(0.100000,-0.100000)"
fill="#000000" stroke="none">
<path d="M3680 3614 c-148 -26 -235 -55 -310 -102 -204 -128 -290 -277 -290
-504 0 -92 16 -160 59 -247 46 -96 129 -180 292 -299 68 -50 132 -98 142 -106
9 -9 19 -16 21 -16 20 0 446 -297 446 -311 0 -6 5 -7 10 -4 6 3 10 3 10 -2 0
-4 18 -21 40 -37 22 -17 40 -35 40 -42 0 -7 5 -16 12 -20 7 -5 8 -2 3 7 -5 8
9 -3 29 -23 21 -20 35 -41 32 -47 -4 -5 -1 -13 5 -17 8 -4 9 -3 5 4 -4 7 -4
12 -1 12 3 0 17 -25 31 -55 31 -67 41 -177 25 -255 -15 -70 -52 -146 -69 -142
-8 1 -11 -2 -8 -6 7 -12 -28 -44 -39 -35 -4 5 -5 3 -2 -4 9 -14 -39 -45 -108
-70 -73 -26 -332 -26 -428 1 -37 11 -63 22 -57 26 6 4 -2 7 -17 7 -32 0 -148
67 -148 84 0 7 -8 13 -18 15 -22 3 -109 86 -144 138 -16 22 -36 49 -46 59 -12
12 -16 26 -12 40 4 15 4 18 -3 8 -7 -10 -16 -1 -37 38 -16 28 -32 51 -37 51
-4 0 -8 -110 -8 -244 l0 -244 38 -23 c20 -13 39 -27 40 -31 2 -4 9 -8 15 -8 7
0 24 -6 38 -14 37 -19 209 -63 303 -76 97 -14 389 -28 408 -18 7 3 47 11 89
17 42 7 101 21 130 32 30 10 60 17 67 14 7 -3 10 0 7 5 -3 6 -2 10 2 10 5 0
35 15 66 34 30 19 59 31 63 27 4 -3 4 -1 1 5 -3 6 9 25 27 43 19 18 36 29 38
24 3 -4 3 -3 2 4 -4 15 20 35 31 25 5 -4 5 -1 1 6 -8 14 31 75 44 67 4 -3 7 1
7 8 -1 6 13 42 31 78 43 87 61 193 50 293 -9 89 -39 185 -74 238 -13 21 -24
40 -24 42 0 3 -11 17 -25 32 -13 14 -22 31 -19 36 3 4 2 7 -3 6 -4 -1 -28 17
-53 41 -25 24 -37 41 -27 37 11 -3 16 -2 12 5 -4 5 -12 8 -18 6 -17 -6 -88 53
-81 65 4 7 2 8 -5 4 -6 -4 -19 0 -27 9 -9 9 -83 59 -163 112 -80 53 -165 108
-188 124 -23 16 -45 29 -49 29 -8 0 -174 110 -174 115 0 3 8 2 18 -1 14 -5 14
-4 2 4 -8 6 -18 8 -22 6 -4 -3 -13 -2 -19 2 -8 5 -8 9 1 14 8 5 7 9 -5 13 -9
4 -13 3 -10 -3 15 -24 -15 -5 -76 48 -36 32 -64 63 -61 70 2 7 -2 10 -10 7
-13 -5 -71 79 -97 140 -22 52 -25 155 -7 219 19 63 22 68 80 127 34 34 83 64
121 73 6 2 30 8 55 16 31 8 77 11 150 6 158 -9 258 -41 348 -112 76 -60 188
-181 234 -253 23 -36 47 -69 52 -72 5 -4 5 -12 1 -19 -5 -9 -4 -11 3 -6 7 4
12 2 12 -3 0 -6 5 -11 12 -11 8 0 9 58 4 227 -8 266 -1 251 -131 313 -138 67
-317 106 -514 114 -64 3 -127 3 -141 0z"/>
<path d="M335 3569 c-274 -9 -259 -6 -202 -29 57 -22 79 -39 70 -53 -3 -6 -1
-7 5 -3 15 9 59 -59 79 -121 18 -54 23 -298 23 -1010 0 -354 2 -402 15 -397
18 7 19 0 3 -25 -10 -16 -7 -24 15 -51 15 -17 24 -36 21 -41 -3 -6 -16 4 -29
20 l-22 31 -5 -57 c-3 -32 -6 -139 -7 -238 -1 -99 -6 -198 -12 -220 -23 -91
-65 -150 -133 -181 l-51 -24 310 -2 c171 -1 472 -2 670 -2 352 1 363 1 490 28
71 15 163 39 205 53 100 34 277 125 348 178 81 61 202 184 248 252 85 125 157
322 184 501 16 109 13 363 -6 447 -8 39 -16 88 -17 110 -1 22 -6 43 -11 47 -6
4 -10 23 -10 42 0 20 -3 31 -6 25 -4 -5 -20 21 -35 58 -16 37 -33 71 -38 74
-5 4 -6 13 -2 20 5 8 5 11 0 7 -4 -4 -26 19 -49 51 -23 33 -66 85 -96 117 -30
32 -55 62 -55 67 0 6 -8 11 -17 13 -25 3 -69 40 -60 49 4 5 2 5 -4 2 -6 -4
-24 5 -38 18 -15 14 -31 25 -35 25 -5 0 -19 8 -32 18 -13 10 -67 38 -121 62
-53 25 -94 48 -92 52 3 4 -1 5 -8 3 -8 -3 -49 6 -93 20 -85 28 -182 47 -335
65 -98 11 -685 11 -1065 -1z m1030 -169 c99 -17 199 -42 209 -51 6 -5 18 -9
29 -9 17 0 145 -58 157 -71 3 -3 23 -16 45 -29 57 -35 116 -90 108 -103 -3 -5
-2 -7 4 -4 16 10 54 -37 47 -59 -4 -13 -3 -15 3 -6 19 25 96 -100 144 -233 16
-44 33 -89 38 -100 27 -59 35 -140 35 -350 -1 -238 -14 -335 -69 -486 -108
-300 -335 -484 -679 -550 -212 -41 -525 -35 -650 12 -63 23 -87 47 -117 114
-21 47 -23 67 -27 323 l-4 273 -39 37 c-50 48 -54 79 -13 106 17 12 36 32 42
46 7 16 13 208 18 545 5 431 9 524 21 543 16 26 67 51 128 63 54 11 496 2 570
-11z m1128 -667 c-7 -2 -19 -2 -25 0 -7 3 -2 5 12 5 14 0 19 -2 13 -5z m-206
-139 c-3 -3 -12 -4 -19 -1 -8 3 -5 6 6 6 11 1 17 -2 13 -5z m-1852 -334 c3 -5
0 -10 -9 -10 -8 0 -22 -3 -32 -7 -16 -6 -17 -5 -4 10 17 19 36 22 45 7z m54
-55 c0 -5 -4 -3 -9 5 -5 8 -9 22 -9 30 0 16 17 -16 18 -35z m-125 10 c-8 -34
19 -75 50 -75 26 0 41 14 49 45 4 16 5 15 6 -5 1 -33 -16 -50 -49 -50 -41 0
-70 26 -70 64 0 29 6 46 17 46 2 0 1 -11 -3 -25z m52 8 c-14 -4 -17 -11 -13
-36 5 -28 5 -29 -5 -10 -13 28 -4 53 19 52 16 -1 16 -2 -1 -6z m39 -3 c3 -5 1
-10 -4 -10 -6 0 -11 5 -11 10 0 6 2 10 4 10 3 0 8 -4 11 -10z m84 -138 c50
-48 60 -62 42 -62 -12 0 -101 89 -101 100 0 16 6 12 59 -38z m-95 -21 c4 -5
-8 -21 -25 -35 l-31 -26 32 -30 c37 -34 38 -35 64 -15 16 12 17 18 8 27 -7 7
-12 19 -12 28 1 11 6 9 20 -8 27 -33 7 -82 -35 -82 -24 0 -125 85 -125 106 0
12 4 12 20 2 18 -11 23 -10 43 14 23 29 32 33 41 19z m113 -147 c-3 -3 -12 -4
-19 -1 -8 3 -5 6 6 6 11 1 17 -2 13 -5z"/>
<path d="M592 2198 c-7 -7 -12 -19 -12 -27 0 -14 48 -71 60 -71 9 0 -1 84 -12
98 -13 15 -21 15 -36 0z"/>
<path d="M3725 2690 c-3 -6 1 -7 9 -4 18 7 21 14 7 14 -6 0 -13 -4 -16 -10z"/>
<path d="M3526 2352 c-2 -4 4 -8 14 -8 10 0 16 4 14 8 -3 4 -9 8 -14 8 -5 0
-11 -4 -14 -8z"/>
</g>
</svg>
